<svg xmlns="http://www.w3.org/2000/svg" width="55" height="55" viewBox="0 0 55 55"><defs><style>.a{fill:#85985a;}</style></defs><path class="a" d="M117.112,91.611h25.2a4.132,4.132,0,0,1,4.12,4.136v11.017a.806.806,0,1,0,1.611,0V95.747A5.745,5.745,0,0,0,142.307,90h-25.2a.806.806,0,0,0,0,1.611Z" transform="translate(-103.812 -80.332)"/><path class="a" d="M32.91,116.486H17.717a.806.806,0,0,0-.614.284l-4.565,5.373L7.973,116.77a.806.806,0,0,0-.614-.284H5.731a4.132,4.132,0,0,1-4.12-4.136v-16.6a4.132,4.132,0,0,1,4.12-4.136H9.564a.806.806,0,0,0,0-1.611H5.731A5.745,5.745,0,0,0,0,95.747v16.6A5.745,5.745,0,0,0,5.731,118.1H6.986l4.938,5.812a.806.806,0,0,0,1.228,0L18.09,118.1H32.91a.806.806,0,1,0,0-1.611Z" transform="translate(0 -80.332)"/><path class="a" d="M23.775,423.76H16.451a.806.806,0,0,0,0,1.611h7.324a1.862,1.862,0,0,1,0,3.724H3.468a1.862,1.862,0,0,1,0-3.724H4.18a.806.806,0,0,0,.653-.333l1.4-1.935,1.4,1.935a.806.806,0,0,0,.653.333h4.44a.806.806,0,0,0,0-1.611H8.7l-1.811-2.5a.806.806,0,0,0-1.305,0l-1.811,2.5h-.3a3.474,3.474,0,0,0,0,6.947H23.775a3.474,3.474,0,0,0,0-6.947Z" transform="translate(0 -375.708)"/><path class="a" d="M261.847,6.947h3.031a.806.806,0,0,0,0-1.611h-3.031a1.862,1.862,0,0,1,0-3.724h20.308a1.862,1.862,0,0,1,0,3.724h-.713a.805.805,0,0,0-.653.333l-1.4,1.935-1.4-1.935a.806.806,0,0,0-.653-.333H268.6a.806.806,0,0,0,0,1.611h8.322l1.811,2.5a.806.806,0,0,0,1.305,0l1.811-2.5h.3a3.473,3.473,0,0,0,0-6.947H261.847a3.474,3.474,0,0,0,0,6.947Z" transform="translate(-230.623)"/><path class="a" d="M103.161,182.53a.806.806,0,0,0,0,1.611h4.3a.806.806,0,0,0,.806-.806v-4.3a.806.806,0,0,0-.806-.806h-3.491v-2.686h3.491a.806.806,0,0,0,0-1.611h-4.3a.806.806,0,0,0-.806.806v4.3a.806.806,0,0,0,.806.806h3.491v2.686Z" transform="translate(-91.36 -155.251)"/><path class="a" d="M182.455,175.547a.806.806,0,1,0,0-1.611h-4.3a.806.806,0,0,0-.806.806v8.594a.806.806,0,0,0,.806.806h4.3a.806.806,0,1,0,0-1.611h-3.491v-2.686h3.491a.806.806,0,1,0,0-1.611h-3.491v-2.686Z" transform="translate(-158.301 -155.251)"/><path class="a" d="M253.158,173.936a.806.806,0,0,0-.806.806v8.594a.806.806,0,0,0,.806.806h4.3a.806.806,0,0,0,.806-.806v-8.594a.806.806,0,0,0-.806-.806Zm3.491,8.594h-2.685v-6.982h2.685Z" transform="translate(-225.244 -155.251)"/><path class="a" d="M348.633,276.913a.805.805,0,0,0-.679-.8l-1.112-.176-.531-1.28.661-.912a.806.806,0,0,0-.083-1.043l-2.275-2.275a.805.805,0,0,0-1.043-.082l-.91.661-1.28-.53-.177-1.112a.806.806,0,0,0-.8-.679h-3.217a.806.806,0,0,0-.8.68l-.176,1.113-1.279.531-.911-.661a.805.805,0,0,0-1.043.083l-2.274,2.277a.806.806,0,0,0-.082,1.043l.661.911-.53,1.281-1.111.177a.806.806,0,0,0-.679.8v3.219a.806.806,0,0,0,.68.8l1.111.176.531,1.28-.661.912a.806.806,0,0,0,.083,1.043l2.275,2.275a.806.806,0,0,0,1.043.082l.91-.661,1.28.53.177,1.112a.806.806,0,0,0,.8.679h3.217a.806.806,0,0,0,.8-.68l.176-1.113,1.279-.531.911.661a.805.805,0,0,0,1.043-.083l2.274-2.277a.806.806,0,0,0,.082-1.043l-.661-.911.53-1.281,1.111-.177a.806.806,0,0,0,.679-.8Zm-2.487,2.672a.806.806,0,0,0-.618.488l-.875,2.115a.806.806,0,0,0,.092.781l.522.72-1.3,1.3-.719-.522a.806.806,0,0,0-.782-.092l-2.112.876a.806.806,0,0,0-.487.618l-.139.879h-1.841l-.14-.878a.806.806,0,0,0-.487-.618l-2.113-.875a.806.806,0,0,0-.782.093l-.718.522-1.3-1.3.522-.72a.806.806,0,0,0,.092-.781l-.876-2.114a.806.806,0,0,0-.618-.487l-.878-.139v-1.843l.877-.14a.805.805,0,0,0,.618-.488l.875-2.115a.805.805,0,0,0-.093-.781l-.522-.72,1.3-1.3.719.522a.805.805,0,0,0,.782.092l2.112-.876a.806.806,0,0,0,.487-.618l.139-.879h1.841l.14.878a.806.806,0,0,0,.487.618l2.113.875a.806.806,0,0,0,.782-.093l.718-.522,1.3,1.3-.522.72a.806.806,0,0,0-.092.781l.876,2.113a.806.806,0,0,0,.618.487l.878.139v1.843Z" transform="translate(-293.634 -239.827)"/><path class="a" d="M388.792,324.336a.806.806,0,0,0-.806.806,2.612,2.612,0,1,1-1.533-2.382.806.806,0,1,0,.668-1.467,4.227,4.227,0,1,0,2.477,3.848A.806.806,0,0,0,388.792,324.336Z" transform="translate(-340.202 -286.442)"/></svg>